# xmcd
# Track frame offsets:
# 150
# 10368
# 24285
# 33652
# 44179
# 55510
# 66797
# 77097
# 90197
# 102284
# 112935
# 122925
# 136391
# 146180
# 158870
# 172238
# 182515
# 194496
# 205495
# 216430
# 232402
# 247825
# 261851
# 272310
#
# Disc length: 3814 seconds
# Revision: 0
# Processed by: cddbd v1.5.1PL0 Copyright (c) Steve Scherf et al.
# Submitted via: VisiTrax 2.9.10.228 - For more info visit www.synapsa.com
#
DISCID=610ee418
DTITLE=Patsy Cline - The Patsy Cline Story
DYEAR=1990
DGENRE=Country
TTITLE0=Heartaches
TTITLE1=She's Got You
TTITLE2=Walking After Midnight
TTITLE3=Strange
TTITLE4=Leavin' on Your Mind
TTITLE5=South of The Border
TTITLE6=Foolin' Around
TTITLE7=I Fall To Pieces
TTITLE8=A Poor Man's Roses
TTITLE9=Tra Le La Le La Triangle
TTITLE10=True Love
TTITLE11=Imagine That
TTITLE12=Back in Baby's Arms
TTITLE13=Crazy
TTITLE14=You're Stronger Than Me
TTITLE15=Seven Lonely Days
TTITLE16=Sweet Dreams (of You)
TTITLE17=Your Cheatin' Heart
TTITLE18=San Antonio Rose
TTITLE19=Why Can't He Be You
TTITLE20=The Waywird Wind
TTITLE21=So Wrong
TTITLE22=I Love You So Mucht It Hurts
TTITLE23=You Belong To Me
EXTD=
EXTT0=
EXTT1=
EXTT2=
EXTT3=
EXTT4=
EXTT5=
EXTT6=
EXTT7=
EXTT8=
EXTT9=
EXTT10=
EXTT11=
EXTT12=
EXTT13=
EXTT14=
EXTT15=
EXTT16=
EXTT17=
EXTT18=
EXTT19=
EXTT20=
EXTT21=
EXTT22=
EXTT23=
PLAYORDER=
